<svg xmlns="http://www.w3.org/2000/svg" width="800" height="400" viewBox="0 0 800 400">
  <defs>
    
<linearGradient id="gGreen" x1="0" y1="0" x2="1" y2="1"><stop offset="0%" stop-color="#F3FFD0"/><stop offset="100%" stop-color="#DFFFA0"/></linearGradient>
<linearGradient id="gPink" x1="0" y1="0" x2="0" y2="1"><stop offset="0%" stop-color="#FFE8F2"/><stop offset="100%" stop-color="#FFC7DE"/></linearGradient>
<linearGradient id="gPink2" x1="0" y1="0" x2="1" y2="1"><stop offset="0%" stop-color="#FFF1F7"/><stop offset="100%" stop-color="#F9D8E8"/></linearGradient>
<linearGradient id="gBlue" x1="0" y1="0" x2="1" y2="1"><stop offset="0%" stop-color="#F2FBFF"/><stop offset="100%" stop-color="#DDF2FF"/></linearGradient>
<linearGradient id="gCream" x1="0" y1="0" x2="1" y2="1"><stop offset="0%" stop-color="#FFF9E9"/><stop offset="100%" stop-color="#FFEBC3"/></linearGradient>
<linearGradient id="gYellow" x1="0" y1="0" x2="1" y2="1"><stop offset="0%" stop-color="#FFFBD0"/><stop offset="100%" stop-color="#FFE680"/></linearGradient>
<linearGradient id="gPurple" x1="0" y1="0" x2="1" y2="1"><stop offset="0%" stop-color="#FAF0FF"/><stop offset="100%" stop-color="#EAD5FF"/></linearGradient>

    <filter id="softShadow" x="-20%" y="-20%" width="140%" height="140%">
      <feDropShadow dx="0" dy="5" stdDeviation="7" flood-color="#000000" flood-opacity="0.08"/>
    </filter>
  </defs>
  
<path d="M120 120
L185 132 L210 82 L260 115 L305 68 L345 115
L400 72 L445 115 L500 68 L540 115 L590 82 L615 132 L680 120
L650 180 L688 220 L635 250 L650 315 L585 300 L555 345
L500 315 L455 350 L400 312 L345 350 L300 315 L245 345
L215 300 L150 315 L165 250 L112 220 L150 180 Z"
fill="url(#gYellow)" stroke="#111111" stroke-width="4" stroke-linejoin="round"/>
<text x="400" y="220" text-anchor="middle" dominant-baseline="middle" font-family="'Nanum Pen Script','Gaegu','Segoe Print','Apple SD Gothic Neo','Noto Sans KR',sans-serif" font-size="70" font-weight="400" fill="#191919">오늘도 성공✨</text>

</svg>